<svg width="450" height="472" viewBox="0 0 450 472" fill="none" xmlns="http://www.w3.org/2000/svg">
<path d="M40.875 307.562H0V430.188H40.875V471.062H408.75V430.188H449.625V307.562H408.75V389.312H367.875V430.188H81.75V389.312H40.875V307.562Z" fill="#696A6A"/>
<path d="M40.875 40.875V163.5H81.75V204.375H367.875V163.5H408.75V40.875H367.875V0H81.75V40.875H40.875Z" fill="#D95763"/>
<path d="M81.75 388.312H40.875V163.5H81.75V204.375H367.875V163.5H408.75V388.312H367.875V429.188H81.75V388.312Z" fill="#AC3232"/>
<path d="M122.625 122.625V81.75H327V122.625H122.625Z" fill="#AC3232"/>
<path d="M204.375 388.312V327H224.812V306.562H245.25V265.688H204.375V286.125H163.5V245.25H183.938V224.812H265.688V245.25H286.125V327H265.688V347.438H245.25V388.312H204.375Z" fill="#822626"/>
<path d="M204.375 429.188V408.75H245.25V429.188H204.375Z" fill="#822626"/>
</svg>
